<?xml version="1.0" encoding="iso-8859-1"?>
<!-- Generator: Adobe Illustrator 19.1.0, SVG Export Plug-In . SVG Version: 6.00 Build 0)  -->
<svg version="1.1" id="Capa_1" xmlns="http://www.w3.org/2000/svg" xmlns:xlink="http://www.w3.org/1999/xlink" x="0px" y="0px"
	 viewBox="0 0 445.887 445.887" style="enable-background:new 0 0 445.887 445.887;" xml:space="preserve">
<g>
	<g>
		<path id="rect4658" fill="white" d="M214.386,13.501C118.422,17.188,35.607,81.913,8.846,174.144
			c-26.761,92.23,8.549,191.23,87.636,245.708c11.868,8.175,25.941,12.553,40.352,12.553c57.406,0,114.812,0,172.219,0
			c14.412,0,28.484-4.378,40.352-12.553c79.087-54.478,114.397-153.478,87.636-245.708S327.465,17.188,231.501,13.501
			C225.156,13.495,220.588,13.459,214.386,13.501L214.386,13.501z M222.281,66.312h0.007h0.007c0.446,0.038,0.884,0.019,1.298,0
			h0.007h0.007c76.352,0.298,143.136,51.479,163.273,125.128c-0.641,0.176-0.642,0.177,0,0.001c1.293,4.729-2.277,9.405-7.179,9.405
			H222.944H66.187c-4.902,0-8.472-4.677-7.179-9.405c0.642,0.175,0.641,0.175,0-0.001C79.145,117.792,145.93,66.61,222.281,66.312z
			 M61.859,251.389c0.616-0.011,1.247,0.055,1.883,0.207c60.338,14.447,108.881,59.128,128.27,118.064
			c1.581,4.806-2.012,9.77-7.071,9.77h-48.107c-3.679,0-7.271-1.117-10.301-3.204C87.33,349.222,61.25,307.012,54.638,259.868
			C54.002,255.331,57.551,251.467,61.859,251.389L61.859,251.389z M384.029,251.389c4.309,0.078,7.857,3.942,7.221,8.48
			c-6.612,47.143-32.692,89.353-71.896,116.358c-3.03,2.087-6.622,3.204-10.301,3.204h-48.107c-5.059,0-8.652-4.964-7.071-9.77
			c19.388-58.936,67.932-103.617,128.27-118.064C382.782,251.444,383.413,251.378,384.029,251.389L384.029,251.389z"/>
	</g>
</g>
<g>
</g>
<g>
</g>
<g>
</g>
<g>
</g>
<g>
</g>
<g>
</g>
<g>
</g>
<g>
</g>
<g>
</g>
<g>
</g>
<g>
</g>
<g>
</g>
<g>
</g>
<g>
</g>
<g>
</g>
</svg>
